<svg width="259" height="319" viewBox="0 0 259 319" fill="none" xmlns="http://www.w3.org/2000/svg">
<g opacity="0.6">
<rect y="65.6096" width="110.959" height="186.781" rx="18.4932" fill="#212328"/>
<rect x="8.96301" y="88.1041" width="93.3205" height="9.76438" rx="2.71233" fill="#32353B"/>
<path d="M11.1031 92.9539C11.1031 93.9446 11.9091 94.7506 12.8998 94.7506C13.2915 94.7506 13.6495 94.6245 13.9444 94.4129L15.0521 95.5228C15.1039 95.5746 15.1715 95.5994 15.2435 95.5994C15.3966 95.5994 15.5024 95.4846 15.5024 95.3337C15.5024 95.2617 15.4754 95.1964 15.4281 95.1491L14.3272 94.0414C14.5591 93.7397 14.6964 93.3637 14.6964 92.9539C14.6964 91.9633 13.8904 91.1573 12.8998 91.1573C11.9091 91.1573 11.1031 91.9633 11.1031 92.9539ZM11.4881 92.9539C11.4881 92.1749 12.1208 91.5423 12.8998 91.5423C13.6788 91.5423 14.3114 92.1749 14.3114 92.9539C14.3114 93.7329 13.6788 94.3656 12.8998 94.3656C12.1208 94.3656 11.4881 93.7329 11.4881 92.9539Z" fill="#ECEFF4" fill-opacity="0.6"/>
<g clip-path="url(#clip0_0_1)">
<path d="M97.0798 174.397C96.9929 174.397 96.9095 174.362 96.8481 174.301C96.7866 174.239 96.7521 174.156 96.7521 174.069V173.086H95.4411C95.2673 173.086 95.1006 173.017 94.9776 172.894C94.8547 172.771 94.7856 172.604 94.7856 172.43V168.497C94.7856 168.323 94.8547 168.157 94.9776 168.034C95.1006 167.911 95.2673 167.842 95.4411 167.842H100.685C100.859 167.842 101.026 167.911 101.148 168.034C101.271 168.157 101.34 168.323 101.34 168.497V172.43C101.34 172.604 101.271 172.771 101.148 172.894C101.026 173.017 100.859 173.086 100.685 173.086H98.6857L97.4731 174.302C97.4076 174.364 97.3256 174.397 97.2437 174.397H97.0798ZM97.4076 172.43V173.44L98.417 172.43H100.685V168.497H95.4411V172.43H97.4076ZM97.7353 169.48C97.7353 169.299 97.882 169.153 98.063 169.153V169.153C98.244 169.153 98.3908 169.299 98.3908 169.48V170.136H99.0463C99.2273 170.136 99.374 170.283 99.374 170.464V170.464C99.374 170.645 99.2273 170.791 99.0463 170.791H98.3908V171.447C98.3908 171.628 98.244 171.775 98.063 171.775V171.775C97.882 171.775 97.7353 171.628 97.7353 171.447V170.791H97.0798C96.8988 170.791 96.7521 170.645 96.7521 170.464V170.464C96.7521 170.283 96.8988 170.136 97.0798 170.136H97.7353V169.48Z" fill="#ECEFF4" fill-opacity="0.6"/>
</g>
<g clip-path="url(#clip1_0_1)">
<path d="M97.0798 194.468C96.9929 194.468 96.9095 194.433 96.8481 194.372C96.7866 194.31 96.7521 194.227 96.7521 194.14V193.157H95.4411C95.2673 193.157 95.1006 193.088 94.9776 192.965C94.8547 192.842 94.7856 192.675 94.7856 192.501V188.569C94.7856 188.395 94.8547 188.228 94.9776 188.105C95.1006 187.982 95.2673 187.913 95.4411 187.913H100.685C100.859 187.913 101.026 187.982 101.148 188.105C101.271 188.228 101.34 188.395 101.34 188.569V192.501C101.34 192.675 101.271 192.842 101.148 192.965C101.026 193.088 100.859 193.157 100.685 193.157H98.6857L97.4731 194.373C97.4076 194.435 97.3256 194.468 97.2437 194.468H97.0798ZM97.4076 192.501V193.511L98.417 192.501H100.685V188.569H95.4411V192.501H97.4076ZM97.7353 189.552C97.7353 189.371 97.882 189.224 98.063 189.224V189.224C98.244 189.224 98.3908 189.371 98.3908 189.552V190.207H99.0463C99.2273 190.207 99.374 190.354 99.374 190.535V190.535C99.374 190.716 99.2273 190.863 99.0463 190.863H98.3908V191.518C98.3908 191.699 98.244 191.846 98.063 191.846V191.846C97.882 191.846 97.7353 191.699 97.7353 191.518V190.863H97.0798C96.8988 190.863 96.7521 190.716 96.7521 190.535V190.535C96.7521 190.354 96.8988 190.207 97.0798 190.207H97.7353V189.552Z" fill="#ECEFF4" fill-opacity="0.6"/>
</g>
<g clip-path="url(#clip2_0_1)">
<path d="M97.0798 235.153C96.9929 235.153 96.9095 235.118 96.8481 235.057C96.7866 234.995 96.7521 234.912 96.7521 234.825V233.842H95.4411C95.2673 233.842 95.1006 233.773 94.9776 233.65C94.8547 233.527 94.7856 233.36 94.7856 233.186V229.253C94.7856 229.08 94.8547 228.913 94.9776 228.79C95.1006 228.667 95.2673 228.598 95.4411 228.598H100.685C100.859 228.598 101.026 228.667 101.148 228.79C101.271 228.913 101.34 229.08 101.34 229.253V233.186C101.34 233.36 101.271 233.527 101.148 233.65C101.026 233.773 100.859 233.842 100.685 233.842H98.6857L97.4731 235.058C97.4076 235.12 97.3256 235.153 97.2437 235.153H97.0798ZM97.4076 233.186V234.196L98.417 233.186H100.685V229.253H95.4411V233.186H97.4076ZM97.7353 230.237C97.7353 230.056 97.882 229.909 98.063 229.909V229.909C98.244 229.909 98.3908 230.056 98.3908 230.237V230.892H99.0463C99.2273 230.892 99.374 231.039 99.374 231.22V231.22C99.374 231.401 99.2273 231.548 99.0463 231.548H98.3908V232.203C98.3908 232.384 98.244 232.531 98.063 232.531V232.531C97.882 232.531 97.7353 232.384 97.7353 232.203V231.548H97.0798C96.8988 231.548 96.7521 231.401 96.7521 231.22V231.22C96.7521 231.039 96.8988 230.892 97.0798 230.892H97.7353V230.237Z" fill="#ECEFF4" fill-opacity="0.6"/>
</g>
<rect x="9.30205" y="224.213" width="15.5959" height="15.5959" rx="1.83082" fill="#757575" stroke="#ECEFF4" stroke-width="0.678082"/>
<rect x="9.30205" y="102.158" width="15.5959" height="15.5959" rx="1.83082" fill="#757575" stroke="#A4D008" stroke-width="0.678082"/>
<rect x="9.30205" y="163.186" width="15.5959" height="15.5959" rx="1.83082" fill="#757575" stroke="#5AA0EA" stroke-width="0.678082"/>
<rect x="8.96301" y="183.189" width="16.274" height="16.274" rx="2.16986" fill="#757575"/>
<rect x="9.30205" y="183.528" width="15.5959" height="15.5959" rx="1.83082" stroke="#5AA0EA" stroke-opacity="0.6" stroke-width="0.678082"/>
<rect x="9.30205" y="142.843" width="15.5959" height="15.5959" rx="1.83082" fill="#757575" stroke="#5AA0EA" stroke-width="0.678082"/>
<rect x="9.30205" y="122.501" width="15.5959" height="15.5959" rx="1.83082" fill="#757575" stroke="#A4D008" stroke-width="0.678082"/>
<rect x="9.30205" y="203.871" width="15.5959" height="15.5959" rx="1.83082" fill="#757575" stroke="#ECEFF4" stroke-width="0.678082"/>
<circle cx="100.369" cy="148.311" r="1.42397" fill="#3A82F7" stroke="#212328" stroke-width="0.406849"/>
<path d="M4.89453 83.6466L4.75891 83.6466L4.75891 83.9178L4.89453 83.9178L4.89453 83.6466ZM55.6151 83.9178C55.69 83.9178 55.7507 83.8571 55.7507 83.7822C55.7507 83.7073 55.69 83.6466 55.6151 83.6466L55.6151 83.9178ZM4.89453 83.9178L55.6151 83.9178L55.6151 83.6466L4.89453 83.6466L4.89453 83.9178Z" fill="#ECEFF4"/>
<line x1="4.62329" y1="83.8505" x2="106.336" y2="83.8505" stroke="#ECEFF4" stroke-opacity="0.18" stroke-width="0.135616"/>
<line x1="74.6316" y1="77.8958" x2="87.1836" y2="77.8958" stroke="#ECEFF4" stroke-opacity="0.6" stroke-width="1.3179" stroke-linecap="round"/>
<line x1="18.2274" y1="92.6904" x2="36.3273" y2="92.6904" stroke="#ECEFF4" stroke-opacity="0.6" stroke-width="1.3179" stroke-linecap="round"/>
<line x1="84.8028" y1="113.033" x2="101.053" y2="113.033" stroke="#ECEFF4" stroke-opacity="0.3" stroke-width="1.3179" stroke-linecap="round"/>
<line x1="91.2754" y1="133.375" x2="101.053" y2="133.375" stroke="#ECEFF4" stroke-opacity="0.3" stroke-width="1.3179" stroke-linecap="round"/>
<line x1="86.6521" y1="153.718" x2="101.053" y2="153.718" stroke="#ECEFF4" stroke-opacity="0.3" stroke-width="1.3179" stroke-linecap="round"/>
<line x1="86.6521" y1="214.745" x2="101.053" y2="214.745" stroke="#ECEFF4" stroke-opacity="0.3" stroke-width="1.3179" stroke-linecap="round"/>
<line x1="23.7754" y1="77.8958" x2="37.252" y2="77.8958" stroke="#ECEFF4" stroke-width="1.3179" stroke-linecap="round"/>
<line x1="30.2479" y1="107.485" x2="54.8204" y2="107.485" stroke="#A4D008" stroke-width="1.3179" stroke-linecap="round"/>
<line x1="30.2479" y1="127.827" x2="61.2931" y2="127.827" stroke="#A4D008" stroke-width="1.3179" stroke-linecap="round"/>
<line x1="30.2479" y1="148.17" x2="54.8204" y2="148.17" stroke="#5AA0EA" stroke-width="1.3179" stroke-linecap="round"/>
<line x1="78.3302" y1="148.17" x2="96.4301" y2="148.17" stroke="#ECEFF4" stroke-width="1.3179" stroke-linecap="round"/>
<line x1="30.2479" y1="167.588" x2="70.5396" y2="167.588" stroke="#5AA0EA" stroke-width="1.3179" stroke-linecap="round"/>
<line x1="30.2479" y1="188.855" x2="54.8204" y2="188.855" stroke="#5AA0EA" stroke-opacity="0.6" stroke-width="1.3179" stroke-linecap="round"/>
<line x1="30.2479" y1="113.033" x2="58.5191" y2="113.033" stroke="#A4D008" stroke-opacity="0.6" stroke-width="1.3179" stroke-linecap="round"/>
<line x1="80.1795" y1="107.485" x2="101.053" y2="107.485" stroke="#ECEFF4" stroke-opacity="0.6" stroke-width="1.3179" stroke-linecap="round"/>
<line x1="80.1795" y1="127.827" x2="101.053" y2="127.827" stroke="#ECEFF4" stroke-opacity="0.6" stroke-width="1.3179" stroke-linecap="round"/>
<line x1="78.3302" y1="209.197" x2="101.053" y2="209.197" stroke="#ECEFF4" stroke-opacity="0.6" stroke-width="1.3179" stroke-linecap="round"/>
<line x1="30.2479" y1="133.375" x2="73.3136" y2="133.375" stroke="#A4D008" stroke-opacity="0.6" stroke-width="1.3179" stroke-linecap="round"/>
<line x1="30.2479" y1="153.718" x2="40.0259" y2="153.718" stroke="#5AA0EA" stroke-opacity="0.6" stroke-width="1.3179" stroke-linecap="round"/>
<line x1="30.2479" y1="174.06" x2="40.0259" y2="174.06" stroke="#5AA0EA" stroke-opacity="0.6" stroke-width="1.3179" stroke-linecap="round"/>
<line x1="30.2479" y1="194.403" x2="43.7246" y2="194.403" stroke="#5AA0EA" stroke-opacity="0.3" stroke-width="1.3179" stroke-linecap="round"/>
<line x1="30.2479" y1="214.745" x2="51.1218" y2="214.745" stroke="#ECEFF4" stroke-opacity="0.6" stroke-width="1.3179" stroke-linecap="round"/>
<line x1="30.2479" y1="235.088" x2="58.5191" y2="235.088" stroke="#ECEFF4" stroke-opacity="0.6" stroke-width="1.3179" stroke-linecap="round"/>
<line x1="30.2479" y1="209.197" x2="51.1218" y2="209.197" stroke="#ECEFF4" stroke-opacity="0.6" stroke-width="1.3179" stroke-linecap="round"/>
<line x1="30.2479" y1="229.54" x2="52.9711" y2="229.54" stroke="#ECEFF4" stroke-opacity="0.6" stroke-width="1.3179" stroke-linecap="round"/>
</g>
<g opacity="0.6">
<g clip-path="url(#clip3_0_1)">
<rect x="148.021" y="65.6096" width="110.959" height="186.781" rx="18.4932" fill="#212328"/>
<path d="M246.884 163.725C246.775 163.615 246.775 163.439 246.884 163.329L247.969 162.245L246.884 161.158C246.775 161.049 246.775 160.872 246.884 160.763V160.763C246.993 160.654 247.17 160.654 247.279 160.763L248.365 161.849C248.584 162.068 248.584 162.422 248.365 162.641L247.28 163.725C247.171 163.835 246.993 163.835 246.884 163.725V163.725Z" fill="#ECEFF4"/>
<g clip-path="url(#clip4_0_1)">
<rect x="251" y="86.9563" width="93.2011" height="55.4169" fill="#757575"/>
<rect x="251" y="142.373" width="93.2011" height="9.79592" fill="#32353B"/>
<line x1="254.659" y1="147.341" x2="273.341" y2="147.341" stroke="#ECEFF4" stroke-width="1.3179" stroke-linecap="round"/>
</g>
<g clip-path="url(#clip5_0_1)">
<rect x="155" y="86.9562" width="93.2011" height="55.4169" fill="#ECEFF4"/>
<path d="M155 142.373H248.201V149.93C248.201 151.167 247.199 152.169 245.962 152.169H157.239C156.002 152.169 155 151.167 155 149.93V142.373Z" fill="#32353B"/>
<path d="M199.723 145.903V147.099C199.723 147.113 199.735 147.124 199.749 147.124H201.388C201.402 147.124 201.414 147.113 201.414 147.099V145.664C201.414 145.657 201.41 145.65 201.405 145.645C201.399 145.64 201.392 145.638 201.384 145.639L199.745 145.877C199.732 145.879 199.723 145.89 199.723 145.903Z" fill="#ECEFF4"/>
<path d="M199.544 148.507C199.55 148.507 199.556 148.505 199.561 148.501C199.566 148.496 199.57 148.489 199.57 148.482V147.304C199.57 147.29 199.558 147.278 199.544 147.278H198.315C198.308 147.278 198.302 147.281 198.297 147.286C198.292 147.29 198.29 147.297 198.29 147.304L198.29 148.313C198.29 148.326 198.299 148.337 198.312 148.339L199.54 148.507C199.542 148.507 199.543 148.507 199.544 148.507Z" fill="#ECEFF4"/>
<path d="M198.315 147.124H199.544C199.558 147.124 199.569 147.113 199.569 147.099V145.932C199.569 145.925 199.566 145.918 199.561 145.913C199.555 145.908 199.548 145.906 199.54 145.907L198.311 146.074C198.298 146.076 198.289 146.087 198.289 146.099L198.29 147.099C198.29 147.113 198.301 147.124 198.315 147.124Z" fill="#ECEFF4"/>
<path d="M201.388 148.764C201.394 148.764 201.4 148.762 201.405 148.758C201.41 148.753 201.414 148.746 201.414 148.738L201.414 147.304C201.414 147.297 201.411 147.29 201.406 147.286C201.402 147.281 201.395 147.278 201.388 147.278H199.749C199.735 147.278 199.723 147.29 199.723 147.304V148.508C199.723 148.52 199.733 148.531 199.745 148.533L201.384 148.764C201.386 148.764 201.387 148.764 201.388 148.764Z" fill="#ECEFF4"/>
<line x1="158.659" y1="147.341" x2="194.341" y2="147.341" stroke="#ECEFF4" stroke-width="1.3179" stroke-linecap="round"/>
<line x1="226.659" y1="147.341" x2="245.341" y2="147.341" stroke="#ECEFF4" stroke-width="1.3179" stroke-linecap="round"/>
</g>
<g clip-path="url(#clip6_0_1)">
<path d="M251 168.122H296.061V218.222H251V168.122Z" fill="#757575"/>
<rect x="251" y="218.222" width="45.0612" height="18.7522" fill="#32353B"/>
<line x1="254.659" y1="233.341" x2="268.341" y2="233.341" stroke="#ECEFF4" stroke-opacity="0.6" stroke-width="1.3179" stroke-linecap="round"/>
<line x1="254.659" y1="222.341" x2="275.341" y2="222.341" stroke="#ECEFF4" stroke-width="1.3179" stroke-linecap="round"/>
<line x1="254.659" y1="226.341" x2="275.341" y2="226.341" stroke="#ECEFF4" stroke-width="1.3179" stroke-linecap="round"/>
</g>
<g clip-path="url(#clip7_0_1)">
<path d="M203.14 168.122H248.201V218.222H203.14V168.122Z" fill="#ECEFF4"/>
<rect x="203.14" y="218.222" width="45.0612" height="18.7522" fill="#32353B"/>
<rect x="235.047" y="221" width="10.6356" height="5.0379" rx="1.11953" fill="#81AE3E"/>
<line x1="206.659" y1="222.341" x2="227.341" y2="222.341" stroke="#ECEFF4" stroke-width="1.3179" stroke-linecap="round"/>
<line x1="206.659" y1="233.341" x2="220.341" y2="233.341" stroke="#ECEFF4" stroke-opacity="0.6" stroke-width="1.3179" stroke-linecap="round"/>
<line x1="231.659" y1="233.341" x2="245.341" y2="233.341" stroke="#ECEFF4" stroke-width="1.3179" stroke-linecap="round"/>
<line x1="232.659" y1="229.341" x2="245.341" y2="229.341" stroke="#ECEFF4" stroke-opacity="0.3" stroke-width="1.3179" stroke-linecap="round"/>
</g>
<g clip-path="url(#clip8_0_1)">
<path d="M155 168.122H200.061V218.222H155V168.122Z" fill="#757575"/>
<rect x="155" y="218.222" width="45.0612" height="18.7522" fill="#32353B"/>
<rect x="186.627" y="221" width="10.6356" height="5.0379" rx="1.11953" fill="#81AE3E"/>
<line x1="158.659" y1="222.341" x2="178.341" y2="222.341" stroke="#ECEFF4" stroke-width="1.3179" stroke-linecap="round"/>
<line x1="158.659" y1="226.341" x2="174.341" y2="226.341" stroke="#ECEFF4" stroke-width="1.3179" stroke-linecap="round"/>
<line x1="183.659" y1="233.341" x2="196.341" y2="233.341" stroke="#ECEFF4" stroke-width="1.3179" stroke-linecap="round"/>
<line x1="184.659" y1="229.341" x2="196.341" y2="229.341" stroke="#ECEFF4" stroke-opacity="0.3" stroke-width="1.3179" stroke-linecap="round"/>
<line x1="158.659" y1="233.341" x2="171.341" y2="233.341" stroke="#ECEFF4" stroke-opacity="0.6" stroke-width="1.3179" stroke-linecap="round"/>
</g>
<line x1="155.659" y1="81.341" x2="178.341" y2="81.341" stroke="#ECEFF4" stroke-width="1.3179" stroke-linecap="round"/>
<line x1="155.659" y1="162.341" x2="193.341" y2="162.341" stroke="#ECEFF4" stroke-width="1.3179" stroke-linecap="round"/>
</g>
</g>
<g filter="url(#filter0_f_0_1)">
<rect x="50" y="35" width="161" height="249" rx="40" fill="#212328" style="mix-blend-mode:multiply"/>
</g>
<rect x="47.6952" y="21.6884" width="164.589" height="274.623" rx="20.8048" fill="#212328" stroke="#757575" stroke-width="4.62329"/>
<circle cx="130.701" cy="101.357" r="44.7882" stroke="#ECEFF4" stroke-opacity="0.18" stroke-width="2.02911"/>
<path d="M130.701 57.1268C130.701 55.8917 131.703 54.8848 132.937 54.9442C141.342 55.349 149.496 58.0305 156.517 62.7214C164.158 67.8273 170.114 75.0843 173.631 83.575C177.148 92.0657 178.068 101.409 176.275 110.422C174.482 119.436 170.056 127.715 163.558 134.214C157.06 140.712 148.78 145.138 139.766 146.931C130.753 148.724 121.41 147.804 112.919 144.287C104.428 140.77 97.1714 134.814 92.0656 127.173C87.3746 120.152 84.6931 111.998 84.2883 103.593C84.2289 102.359 85.2357 101.357 86.4708 101.357V101.357C87.7059 101.357 88.701 102.359 88.7667 103.592C89.1675 111.113 91.585 118.403 95.7845 124.688C100.399 131.593 106.957 136.976 114.631 140.154C122.304 143.333 130.748 144.164 138.894 142.544C147.04 140.924 154.522 136.924 160.395 131.051C166.268 125.178 170.268 117.696 171.888 109.55C173.508 101.404 172.677 92.96 169.498 85.2866C166.32 77.6133 160.938 71.0547 154.032 66.4404C147.747 62.2409 140.457 59.8235 132.936 59.4226C131.703 59.3569 130.701 58.3619 130.701 57.1268V57.1268Z" fill="#5AA0EA"/>
<path d="M106.899 105.425C109.825 105.425 111.967 103.511 111.967 100.822V100.803C111.967 98.3423 110.226 96.5375 107.683 96.5375C105.905 96.5375 104.611 97.4308 104.091 98.6522H104.037C104.037 98.5155 104.046 98.3332 104.055 98.1509C104.155 95.8265 104.994 93.9944 106.917 93.9944C107.993 93.9944 108.722 94.5322 109.05 95.3252L109.077 95.4073H111.794L111.775 95.3161C111.383 93.2834 109.469 91.8159 106.926 91.8159C103.499 91.8159 101.411 94.4046 101.411 98.716V98.7343C101.411 103.192 103.727 105.425 106.899 105.425ZM104.456 100.885V100.867C104.456 99.5273 105.513 98.5702 106.89 98.5702C108.257 98.5702 109.287 99.5364 109.287 100.904V100.922C109.287 102.216 108.202 103.237 106.862 103.237C105.513 103.237 104.456 102.207 104.456 100.885ZM120.195 105.197H122.811V102.781H124.543V100.585H122.811V92.0438H118.928L113.65 100.484V102.781H120.195V105.197ZM116.047 100.658V100.585L120.185 94.0309H120.249V100.658H116.047ZM126.043 105.197H136.198V102.927H129.352V102.873L136.015 93.8303V92.0438H126.198V94.3134H132.734V94.3681L126.043 103.401V105.197ZM143.286 105.425C146.622 105.425 148.646 102.809 148.646 98.6249V98.6067C148.646 94.4228 146.622 91.8159 143.286 91.8159C139.95 91.8159 137.926 94.4228 137.926 98.6067V98.6249C137.926 102.809 139.95 105.425 143.286 105.425ZM143.286 103.219C141.645 103.219 140.706 101.514 140.706 98.6249V98.6067C140.706 95.7172 141.645 94.0218 143.286 94.0218C144.927 94.0218 145.866 95.7172 145.866 98.6067V98.6249C145.866 101.514 144.927 103.219 143.286 103.219ZM150.402 105.197H159.964V103.009H154.002V102.9L156.755 100.384C159.025 98.2968 159.781 97.2576 159.781 95.6625V95.6442C159.781 93.4019 157.867 91.8159 155.087 91.8159C152.307 91.8159 150.247 93.5569 150.247 96.0362V96.1091H152.799L152.808 96.0271C152.845 94.8421 153.756 93.9579 155.105 93.9579C156.272 93.9579 157.092 94.7236 157.101 95.7992V95.8174C157.101 96.7289 156.746 97.3761 155.05 98.9622L150.402 103.31V105.197Z" fill="#ECEFF4"/>
<rect x="61.1028" y="217.074" width="139.197" height="20.2911" rx="3.24658" fill="#32353B"/>
<path d="M190.744 229.43C190.567 229.252 190.567 228.963 190.745 228.785L192.514 227.016L190.745 225.243C190.567 225.065 190.567 224.777 190.745 224.599V224.599C190.923 224.421 191.211 224.421 191.389 224.599L193.233 226.442C193.55 226.759 193.55 227.273 193.233 227.59L191.391 229.431C191.213 229.61 190.922 229.61 190.744 229.43V229.43Z" fill="#ECEFF4"/>
<rect x="61.1028" y="242.425" width="139.197" height="20.2911" rx="3.24658" fill="#32353B"/>
<path d="M190.744 254.781C190.567 254.603 190.567 254.314 190.745 254.136L192.514 252.367L190.745 250.594C190.567 250.416 190.567 250.128 190.745 249.95V249.95C190.923 249.772 191.211 249.772 191.389 249.95L193.233 251.793C193.55 252.11 193.55 252.624 193.233 252.941L191.391 254.782C191.213 254.961 190.922 254.961 190.744 254.781V254.781Z" fill="#ECEFF4"/>
<line x1="100.863" y1="159.377" x2="161.89" y2="159.377" stroke="#ECEFF4" stroke-opacity="0.6" stroke-width="1.84932" stroke-linecap="round"/>
<line x1="91.6164" y1="195.116" x2="170.212" y2="195.116" stroke="#ECEFF4" stroke-opacity="0.3" stroke-width="1.84932" stroke-linecap="round"/>
<line x1="123.055" y1="114.068" x2="138.774" y2="114.068" stroke="#ECEFF4" stroke-opacity="0.3" stroke-width="1.84932" stroke-linecap="round"/>
<line x1="86.9931" y1="202.514" x2="173.911" y2="202.514" stroke="#ECEFF4" stroke-opacity="0.3" stroke-width="1.84932" stroke-linecap="round"/>
<line x1="115.658" y1="168.623" x2="145.247" y2="168.623" stroke="#ECEFF4" stroke-width="1.84932" stroke-linecap="round"/>
<line x1="68.5" y1="227.63" x2="138.774" y2="227.63" stroke="#ECEFF4" stroke-width="1.84932" stroke-linecap="round"/>
<line x1="68.5" y1="252.596" x2="154.493" y2="252.596" stroke="#ECEFF4" stroke-width="1.84932" stroke-linecap="round"/>
<defs>
<filter id="filter0_f_0_1" x="15" y="0" width="231" height="319" filterUnits="userSpaceOnUse" color-interpolation-filters="sRGB">
<feFlood flood-opacity="0" result="BackgroundImageFix"/>
<feBlend mode="normal" in="SourceGraphic" in2="BackgroundImageFix" result="shape"/>
<feGaussianBlur stdDeviation="17.5" result="effect1_foregroundBlur_0_1"/>
</filter>
<clipPath id="clip0_0_1">
<rect width="7.86575" height="7.86575" fill="white" transform="translate(94.1301 167.186)"/>
</clipPath>
<clipPath id="clip1_0_1">
<rect width="7.86575" height="7.86575" fill="white" transform="translate(94.1301 187.258)"/>
</clipPath>
<clipPath id="clip2_0_1">
<rect width="7.86575" height="7.86575" fill="white" transform="translate(94.1301 227.942)"/>
</clipPath>
<clipPath id="clip3_0_1">
<rect x="148.021" y="65.6096" width="110.959" height="186.781" rx="18.49" fill="white"/>
</clipPath>
<clipPath id="clip4_0_1">
<rect x="251" y="86.9563" width="93.2011" height="65.2128" rx="2.23907" fill="white"/>
</clipPath>
<clipPath id="clip5_0_1">
<rect x="155" y="86.9562" width="93.2011" height="65.2128" rx="2.23907" fill="white"/>
</clipPath>
<clipPath id="clip6_0_1">
<rect x="251" y="168.122" width="45.0612" height="68.8513" rx="2.23907" fill="white"/>
</clipPath>
<clipPath id="clip7_0_1">
<rect x="203.14" y="168.122" width="45.0612" height="68.8513" rx="2.23907" fill="white"/>
</clipPath>
<clipPath id="clip8_0_1">
<rect x="155" y="168.122" width="45.0612" height="68.8513" rx="2.23907" fill="white"/>
</clipPath>
</defs>
</svg>
