<svg width="140" height="113" viewBox="0 0 140 113" fill="none" xmlns="http://www.w3.org/2000/svg">
<g clip-path="url(#clip0_208_378)">
<path d="M69.2274 0C60.6386 0.00157275 52.3653 3.23354 46.0543 9.0526C39.7433 14.8717 35.8574 22.8511 35.17 31.4026L53.489 38.9658C55.0814 37.8746 56.9662 37.2883 58.8974 37.2834H59.4382L67.6126 25.5064V25.3366C67.6126 22.7891 68.3689 20.2988 69.7858 18.1806C71.2027 16.0624 73.2167 14.4115 75.573 13.4366C77.9293 12.4617 80.522 12.2066 83.0234 12.7036C85.5249 13.2006 87.8226 14.4273 89.626 16.2287C91.4294 18.0301 92.6575 20.3252 93.1551 22.8238C93.6527 25.3223 93.3973 27.9122 92.4213 30.2658C91.4453 32.6194 89.7925 34.6311 87.6719 36.0464C85.5513 37.4617 83.0582 38.2172 80.5077 38.2172H80.2141L68.6247 46.4981C68.6247 46.6524 68.6247 46.8068 68.6247 46.9611C68.6471 49.3748 67.7643 51.7094 66.15 53.5055C64.5357 55.3016 62.3069 56.4292 59.9021 56.6663C57.4973 56.9034 55.0908 56.2329 53.156 54.7867C51.2213 53.3405 49.8986 51.2234 49.4481 48.8519L36.3135 43.4497C38.0466 49.5598 41.4515 55.0659 46.1455 59.3493C50.8394 63.6327 56.6363 66.5235 62.8847 67.6968C69.1331 68.8702 75.5852 68.2795 81.516 65.9913C87.4468 63.703 92.6211 59.8079 96.4573 54.7436C100.294 49.6793 102.64 43.6467 103.232 37.3237C103.825 31.0007 102.64 24.6379 99.8109 18.9506C96.9819 13.2633 92.6211 8.47675 87.2183 5.12904C81.8156 1.78133 75.5852 0.00510108 69.2274 0V0Z" fill="#ECEFF4"/>
<path d="M56.5872 51.8L52.3841 50.0713C52.9935 51.3392 53.9588 52.4027 55.1624 53.1326C56.366 53.8624 57.756 54.2271 59.1633 54.1822C60.5706 54.1372 61.9345 53.6846 63.089 52.8795C64.2434 52.0744 65.1387 50.9514 65.6658 49.6472C66.1929 48.3431 66.3292 46.914 66.0579 45.5339C65.7867 44.1538 65.1197 42.8822 64.1381 41.8739C63.1565 40.8656 61.9026 40.1641 60.5291 39.8547C59.1556 39.5452 57.7216 39.6413 56.4018 40.1311L60.7362 41.9216C62.0032 42.4937 62.9972 43.5362 63.5074 44.8282C64.0177 46.1201 64.004 47.5598 63.4693 48.8418C62.9346 50.1238 61.9209 51.1473 60.6433 51.6953C59.3657 52.2432 57.9247 52.2725 56.6258 51.7769L56.5872 51.8Z" fill="#ECEFF4"/>
<path d="M89.0916 25.3366C89.084 23.6406 88.5734 21.9849 87.6244 20.5786C86.6753 19.1722 85.3304 18.0782 83.7594 17.4348C82.1884 16.7914 80.4617 16.6274 78.7974 16.9635C77.1332 17.2996 75.6059 18.1208 74.4086 19.3233C73.2112 20.5258 72.3973 22.0557 72.0698 23.7199C71.7423 25.384 71.9158 27.1078 72.5684 28.6736C73.2209 30.2393 74.3234 31.5768 75.7364 32.5172C77.1495 33.4576 78.8098 33.9586 80.5077 33.9571C81.6386 33.9561 82.7581 33.7321 83.8022 33.298C84.8462 32.8638 85.7941 32.2281 86.5916 31.4272C87.3891 30.6263 88.0204 29.676 88.4495 28.6309C88.8785 27.5857 89.0967 26.4662 89.0916 25.3366ZM74.064 25.3366C74.0625 24.0599 74.4402 22.8115 75.1494 21.7493C75.8585 20.6871 76.8672 19.8589 78.0478 19.3697C79.2284 18.8804 80.5277 18.752 81.7814 19.0007C83.0351 19.2494 84.1867 19.864 85.0905 20.7668C85.9943 21.6695 86.6096 22.8199 86.8586 24.0721C87.1076 25.3244 86.979 26.6223 86.4892 27.8015C85.9993 28.9807 85.1703 29.9883 84.1069 30.6967C83.0435 31.405 81.7936 31.7823 80.5154 31.7808C79.6676 31.7808 78.828 31.6138 78.0448 31.2895C77.2616 30.9652 76.55 30.4898 75.9509 29.8906C75.3517 29.2914 74.8766 28.5801 74.5529 27.7974C74.2291 27.0146 74.063 26.1758 74.064 25.3289V25.3366Z" fill="#ECEFF4"/>
<path d="M140 90.079C139.997 90.7838 139.785 91.4719 139.39 92.0564C138.996 92.6409 138.437 93.0955 137.784 93.3627C137.131 93.63 136.413 93.698 135.722 93.558C135.03 93.4181 134.396 93.0765 133.898 92.5765C133.401 92.0765 133.063 91.4404 132.927 90.7487C132.792 90.057 132.865 89.3406 133.136 88.6902C133.408 88.0397 133.867 87.4843 134.455 87.0941C135.042 86.7039 135.733 86.4965 136.438 86.498C136.911 86.4862 137.381 86.571 137.82 86.7471C138.259 86.9232 138.658 87.1869 138.991 87.5221C139.325 87.8573 139.586 88.257 139.76 88.6966C139.933 89.1363 140.015 89.6066 140 90.079ZM133.464 90.079C133.471 90.6631 133.651 91.2319 133.982 91.714C134.312 92.196 134.777 92.5699 135.32 92.7885C135.862 93.0071 136.457 93.0608 137.03 92.9427C137.602 92.8247 138.128 92.5402 138.539 92.125C138.95 91.7098 139.23 91.1825 139.342 90.6092C139.454 90.0359 139.394 89.4423 139.17 88.9029C138.945 88.3635 138.566 87.9024 138.08 87.5775C137.594 87.2526 137.023 87.0784 136.438 87.0768C136.042 87.0649 135.647 87.1346 135.279 87.2816C134.91 87.4286 134.576 87.6499 134.297 87.9315C134.018 88.2131 133.8 88.5491 133.657 88.9186C133.513 89.288 133.447 89.683 133.464 90.079ZM136.485 88.2499C137.412 88.2499 137.721 88.7361 137.721 89.2609C137.724 89.4675 137.665 89.6702 137.552 89.8433C137.439 90.0165 137.277 90.1522 137.087 90.2333L137.914 91.7768H137.234L136.539 90.4031H135.82V91.7768H135.256V88.2422L136.485 88.2499ZM135.82 89.8937H136.454C136.535 89.9024 136.618 89.8938 136.696 89.8687C136.774 89.8436 136.845 89.8025 136.907 89.748C136.968 89.6935 137.017 89.6268 137.05 89.5522C137.084 89.4776 137.102 89.3968 137.103 89.3149C137.103 88.9908 136.925 88.7824 136.454 88.7824H135.82V89.8937Z" fill="#ECEFF4"/>
<path d="M18.3962 88.9213L16.0784 92.9421C14.2348 91.6897 12.0648 91.003 9.83554 90.9664C7.44812 90.9664 5.97241 91.9543 5.97241 93.7216C5.97241 95.8671 8.59934 96.3687 12.4934 97.7656C16.681 99.2396 19.0916 100.984 19.0916 104.812C19.0916 110.052 14.9581 113 9.04746 113C5.87601 113.007 2.75755 112.188 0 110.623L1.66887 106.17C3.86177 107.328 6.2968 107.955 8.77704 107.999C11.9062 107.999 13.4128 106.841 13.4128 105.136C13.4128 103.183 11.1413 102.597 7.47903 101.385C3.30684 99.9959 0.409492 98.1669 0.409492 93.93C0.409492 89.1451 4.27263 86.3977 9.766 86.3977C12.8362 86.3164 15.8546 87.199 18.3962 88.9213Z" fill="#ECEFF4"/>
<path d="M36.6921 91.4604V112.56H31.2837V91.4604H23.4724V86.8299H44.4956V91.4604H36.6921Z" fill="#ECEFF4"/>
<path d="M55.4669 91.4449V97.2408H65.7892V101.871H55.4669V107.906H67.4426V112.537H50.0817V86.8376H67.4426V91.4681L55.4669 91.4449Z" fill="#ECEFF4"/>
<path d="M79.4801 107.567L77.7726 112.56H72.1247L81.7748 86.8376H87.1832L97.1038 112.56H91.2627L89.5243 107.567H79.4801ZM84.4559 92.973L80.9404 103.276H88.0795L84.4559 92.973Z" fill="#ECEFF4"/>
<path d="M124.393 96.7778L117.347 111.812H114.349L107.395 96.9167V112.56H102.226V86.8376H107.395L116.049 105.406L124.393 86.8376H129.593V112.56H124.393V96.7778Z" fill="#ECEFF4"/>
</g>
<defs>
<clipPath id="clip0_208_378">
<rect width="140" height="113" fill="white"/>
</clipPath>
</defs>
</svg>
